<?xml version="1.0" encoding="UTF-8"?><svg xmlns="http://www.w3.org/2000/svg" xmlns:xlink="http://www.w3.org/1999/xlink" viewBox="0 0 500 95.32"><defs><style>.g{fill:url(#f);}.h{fill:#121214;}.i{fill:url(#d);}.j{fill:url(#e);}</style><linearGradient id="d" x1="0" y1="47.66" x2="86.83" y2="47.66" gradientTransform="matrix(1, 0, 0, 1, 0, 0)" gradientUnits="userSpaceOnUse"><stop offset="0" stop-color="#99027d"/><stop offset=".73" stop-color="#e100b4"/><stop offset="1" stop-color="#84136f"/></linearGradient><linearGradient id="e" x1="71.96" y1="46.15" x2="149.42" y2="46.15" gradientTransform="matrix(1, 0, 0, 1, 0, 0)" gradientUnits="userSpaceOnUse"><stop offset="0" stop-color="#99027d"/><stop offset="1" stop-color="#e100b4"/></linearGradient><linearGradient id="f" x1="-129.68" y1="313.17" x2="-84.37" y2="313.17" gradientTransform="translate(299.97 -321.37) rotate(14.71) scale(1 1.37)" xlink:href="#e"/></defs><g id="a"/><g id="b"><g id="c"><g><path class="h" d="M174.27,73.29c-4.98,0-9.42-1.13-13.3-3.41-3.89-2.27-6.94-5.35-9.15-9.24-2.21-3.89-3.31-8.29-3.31-13.21s1.09-9.52,3.27-13.44c2.18-3.92,5.17-6.99,8.96-9.2,3.8-2.21,8.15-3.31,13.07-3.31,3.67,0,7.03,.7,10.08,2.1,3.05,1.4,5.79,3.5,8.22,6.3,.87,1,1.18,2.02,.93,3.08-.25,1.06-.93,1.99-2.05,2.8-.87,.62-1.84,.83-2.89,.61-1.06-.22-2.02-.76-2.89-1.63-3.05-3.23-6.85-4.85-11.39-4.85-3.17,0-5.97,.73-8.4,2.19-2.43,1.46-4.33,3.5-5.69,6.11-1.37,2.61-2.05,5.69-2.05,9.24,0,3.36,.7,6.35,2.1,8.96s3.35,4.68,5.83,6.21c2.49,1.53,5.38,2.29,8.68,2.29,2.18,0,4.09-.26,5.74-.79,1.65-.53,3.16-1.35,4.53-2.47,1-.81,2.02-1.26,3.08-1.35,1.06-.09,1.99,.21,2.8,.89,1.06,.87,1.65,1.85,1.77,2.94,.12,1.09-.25,2.07-1.12,2.94-4.48,4.17-10.08,6.26-16.8,6.26Z"/><path class="h" d="M223.84,73.29c-4.54,0-8.62-1.13-12.23-3.41-3.61-2.27-6.46-5.35-8.54-9.24-2.09-3.89-3.13-8.29-3.13-13.21s1.14-9.34,3.41-13.26c2.27-3.92,5.35-7.02,9.24-9.29,3.89-2.27,8.26-3.41,13.12-3.41s9.21,1.14,13.07,3.41c3.86,2.27,6.92,5.37,9.2,9.29,2.27,3.92,3.41,8.34,3.41,13.26h-3.64c0,4.92-1.04,9.32-3.13,13.21-2.09,3.89-4.93,6.97-8.54,9.24-3.61,2.27-7.69,3.41-12.23,3.41Zm1.87-8.4c3.17,0,6.01-.76,8.5-2.29,2.49-1.52,4.45-3.61,5.88-6.25,1.43-2.65,2.15-5.62,2.15-8.92s-.72-6.36-2.15-9.01c-1.43-2.64-3.39-4.73-5.88-6.26-2.49-1.52-5.32-2.29-8.5-2.29s-5.93,.76-8.45,2.29c-2.52,1.53-4.51,3.61-5.98,6.26-1.46,2.65-2.19,5.65-2.19,9.01s.73,6.27,2.19,8.92c1.46,2.64,3.45,4.73,5.98,6.25,2.52,1.53,5.34,2.29,8.45,2.29Zm20.91,8.12c-1.37,0-2.51-.45-3.41-1.35-.9-.9-1.35-2.04-1.35-3.41v-14.28l1.77-9.9,7.75,3.36v20.82c0,1.37-.45,2.51-1.35,3.41-.9,.9-2.04,1.35-3.41,1.35Z"/><path class="h" d="M284.05,73.29c-4.85,0-9.23-1.13-13.12-3.41-3.89-2.27-6.97-5.37-9.24-9.29s-3.41-8.34-3.41-13.26,1.04-9.32,3.13-13.21c2.08-3.89,4.93-6.97,8.54-9.24,3.61-2.27,7.69-3.41,12.23-3.41,3.67,0,7.06,.76,10.17,2.29,3.11,1.53,5.73,3.59,7.84,6.21V4.76c0-1.43,.45-2.58,1.35-3.45,.9-.87,2.04-1.31,3.41-1.31s2.58,.44,3.46,1.31c.87,.87,1.31,2.02,1.31,3.45V47.33c0,4.92-1.14,9.33-3.41,13.26-2.27,3.92-5.34,7.02-9.2,9.29-3.86,2.27-8.21,3.41-13.07,3.41Zm0-8.4c3.17,0,6.01-.76,8.5-2.29,2.49-1.52,4.45-3.62,5.88-6.3s2.15-5.66,2.15-8.96-.72-6.35-2.15-8.96-3.39-4.68-5.88-6.21c-2.49-1.52-5.32-2.29-8.5-2.29s-5.93,.76-8.45,2.29c-2.52,1.53-4.51,3.59-5.97,6.21-1.46,2.61-2.19,5.6-2.19,8.96s.73,6.29,2.19,8.96c1.46,2.68,3.45,4.78,5.97,6.3,2.52,1.53,5.34,2.29,8.45,2.29Z"/><path class="h" d="M345.85,73.29c-5.17,0-9.76-1.1-13.77-3.31s-7.16-5.26-9.43-9.15c-2.27-3.89-3.41-8.36-3.41-13.4s1.07-9.6,3.22-13.49c2.15-3.89,5.12-6.94,8.92-9.15,3.79-2.21,8.15-3.31,13.07-3.31s9.02,1.07,12.51,3.22c3.48,2.15,6.15,5.1,7.98,8.87,1.84,3.77,2.75,8.11,2.75,13.02,0,1.18-.41,2.16-1.21,2.94-.81,.78-1.84,1.16-3.08,1.16h-37.62v-7.47h37.34l-3.83,2.61c-.06-3.11-.69-5.9-1.87-8.36-1.18-2.46-2.86-4.4-5.04-5.83-2.18-1.43-4.82-2.15-7.94-2.15-3.55,0-6.58,.78-9.1,2.33-2.52,1.56-4.43,3.69-5.74,6.4-1.31,2.71-1.96,5.77-1.96,9.2s.78,6.47,2.33,9.15,3.7,4.79,6.44,6.35c2.74,1.56,5.88,2.33,9.43,2.33,1.93,0,3.9-.36,5.93-1.07,2.02-.71,3.66-1.54,4.9-2.47,.93-.68,1.94-1.04,3.03-1.07,1.09-.03,2.04,.29,2.85,.98,1.06,.93,1.62,1.96,1.68,3.08,.06,1.12-.44,2.09-1.49,2.89-2.12,1.68-4.75,3.05-7.89,4.11-3.14,1.06-6.15,1.59-9.01,1.59Z"/><path class="h" d="M379.93,73.01c-1.37,0-2.51-.45-3.41-1.35s-1.35-2.04-1.35-3.41V26.7c0-1.43,.45-2.58,1.35-3.45,.9-.87,2.04-1.31,3.41-1.31s2.58,.44,3.46,1.31c.87,.87,1.31,2.02,1.31,3.45v41.54c0,1.37-.44,2.51-1.31,3.41-.87,.9-2.02,1.35-3.46,1.35Zm31.18,0c-1.37,0-2.51-.45-3.41-1.35s-1.35-2.04-1.35-3.41v-26.7c0-3.92-.97-6.83-2.89-8.73-1.93-1.9-4.45-2.85-7.56-2.85s-5.91,1.12-8.03,3.36c-2.12,2.24-3.17,5.1-3.17,8.59h-5.88c0-4.04,.81-7.61,2.43-10.69,1.62-3.08,3.86-5.49,6.72-7.24,2.86-1.74,6.13-2.61,9.8-2.61s6.69,.78,9.43,2.33c2.74,1.56,4.87,3.84,6.4,6.86,1.52,3.02,2.29,6.68,2.29,10.97v26.7c0,1.37-.44,2.51-1.31,3.41-.87,.9-2.02,1.35-3.46,1.35Zm31.09,0c-1.37,0-2.51-.45-3.41-1.35-.9-.9-1.35-2.04-1.35-3.41v-26.7c0-3.92-.96-6.83-2.89-8.73-1.93-1.9-4.45-2.85-7.56-2.85s-5.9,1.12-7.98,3.36c-2.09,2.24-3.13,5.1-3.13,8.59h-7.75c0-4.04,.87-7.61,2.61-10.69,1.74-3.08,4.18-5.49,7.33-7.24,3.14-1.74,6.74-2.61,10.78-2.61,3.55,0,6.69,.78,9.43,2.33,2.74,1.56,4.87,3.84,6.39,6.86,1.52,3.02,2.29,6.68,2.29,10.97v26.7c0,1.37-.44,2.51-1.31,3.41-.87,.9-2.02,1.35-3.45,1.35Z"/><path class="h" d="M478.23,70.86c-1.18,.5-2.29,.55-3.31,.14-1.03-.4-1.85-1.2-2.47-2.38l-21.38-40.61c-.62-1.18-.7-2.32-.23-3.41,.47-1.09,1.29-1.88,2.47-2.38,1.18-.5,2.3-.54,3.36-.14,1.06,.41,1.87,1.2,2.43,2.38l20.45,40.61c.62,1.18,.85,2.32,.7,3.41-.16,1.09-.82,1.88-2.01,2.38Zm-11.02,24.46c-.62,0-1.37-.19-2.24-.56-2.74-1.25-3.49-3.21-2.24-5.88l28.47-64.32c1.24-2.61,3.21-3.36,5.88-2.24,2.8,1.18,3.58,3.14,2.33,5.88l-28.57,64.23c-.75,1.93-1.96,2.89-3.64,2.89Z"/></g><g><path class="i" d="M63.67,68l15.58,4.18c-7.83,11.41-20.97,18.91-35.82,18.91C19.48,91.09,0,71.61,0,47.66S19.48,4.23,43.43,4.23c16.18,0,30.31,8.9,37.78,22.06,.61,1.07,1.17,2.17,1.69,3.29,2.31,5.03,3.7,10.58,3.92,16.43,0,.14,.01,.29,.01,.43-2.88,1.5-6.11,2.3-9.41,2.3-.14,0-.27,0-.4,0l-4.51-1.21-.55,.47c.25-.74,.17-1.22,.15-1.54-.04-.89-.12-1.77-.23-2.64-1.89-14.02-13.92-24.87-28.45-24.87-15.83,0-28.72,12.88-28.72,28.71s12.88,28.72,28.72,28.72c7.89,0,15.05-3.2,20.25-8.37Z"/><path class="j" d="M145.75,87.09c-1.16,.67-2.42,.99-3.67,.99-2.54,0-5.01-1.32-6.38-3.68L102.15,26.3l-7.07,12.24c-2,3.46-4.89,6.15-8.25,7.89-2.88,1.5-6.11,2.3-9.41,2.3-.14,0-.27,0-.4,0-1.68-.03-3.38-.28-5.06-.74l10.94-18.41,12.88-21.67c1.32-2.28,3.74-3.68,6.37-3.68s5.06,1.4,6.37,3.68l39.92,69.13c2.03,3.52,.83,8.02-2.69,10.05Z"/><path class="g" d="M82.76,56.91c-8.35-2.19-16.9,2.8-19.09,11.15h0l28.7,7.53c8.35,2.19,16.9-2.8,19.09-11.15h0l-28.7-7.53Z"/></g></g></g></svg>